<svg xmlns="http://www.w3.org/2000/svg" xmlns:xlink="http://www.w3.org/1999/xlink" width="250" zoomAndPan="magnify" viewBox="0 0 187.5 187.499992" height="250" preserveAspectRatio="xMidYMid meet" version="1.0"><defs><g/><clipPath id="7d34632ba2"><path d="M 96 106 L 112 106 L 112 116.585938 L 96 116.585938 Z M 96 106 " clip-rule="nonzero"/></clipPath><clipPath id="48a12876b7"><path d="M 77 22.339844 L 123 22.339844 L 123 68 L 77 68 Z M 77 22.339844 " clip-rule="nonzero"/></clipPath><clipPath id="0b5470ac0a"><path d="M 87 22.339844 L 118 22.339844 L 118 30 L 87 30 Z M 87 22.339844 " clip-rule="nonzero"/></clipPath><clipPath id="9574c8636b"><path d="M 77 22.339844 L 124 22.339844 L 124 68 L 77 68 Z M 77 22.339844 " clip-rule="nonzero"/></clipPath></defs><g fill="#2b2b2b" fill-opacity="1"><g transform="translate(51.72778, 129.27835)"><g><path d="M 19.328125 -29.96875 L 19.328125 -23.96875 L 9.015625 -23.96875 L 9.015625 -18.015625 L 18.890625 -18.015625 L 18.890625 -12.03125 L 9.015625 -12.03125 L 9.015625 -6 L 19.328125 -6 L 19.328125 0 L 2.171875 0 L 2.171875 -29.96875 Z M 19.328125 -29.96875 "/></g></g></g><g fill="#2b2b2b" fill-opacity="1"><g transform="translate(70.321506, 129.27835)"><g><path d="M 9.015625 -29.96875 L 9.015625 -6 L 19.328125 -6 L 19.328125 0 L 2.171875 0 L 2.171875 -29.96875 Z M 9.015625 -29.96875 "/></g></g></g><g fill="#2b2b2b" fill-opacity="1"><g transform="translate(88.370478, 129.27835)"><g><path d="M 9.015625 -29.96875 L 9.015625 0 L 2.171875 0 L 2.171875 -29.96875 Z M 9.015625 -29.96875 "/></g></g></g><g fill="#2b2b2b" fill-opacity="1"><g transform="translate(97.086011, 129.27835)"><g><path d="M 0.296875 -23.96875 L 0.296875 -29.96875 L 21.359375 -29.96875 L 21.359375 -23.96875 L 14.234375 -23.96875 L 14.234375 0 L 7.40625 0 L 7.40625 -23.96875 Z M 0.296875 -23.96875 "/></g></g></g><g fill="#2b2b2b" fill-opacity="1"><g transform="translate(116.260807, 129.27835)"><g><path d="M 19.328125 -29.96875 L 19.328125 -23.96875 L 9.015625 -23.96875 L 9.015625 -18.015625 L 18.890625 -18.015625 L 18.890625 -12.03125 L 9.015625 -12.03125 L 9.015625 -6 L 19.328125 -6 L 19.328125 0 L 2.171875 0 L 2.171875 -29.96875 Z M 19.328125 -29.96875 "/></g></g></g><g fill="#282929" fill-opacity="1"><g transform="translate(67.717014, 140.339548)"><g><path d="M 1.582031 -3.34375 L 3.644531 -3.34375 L 3.644531 -4.195312 L 0.488281 -4.195312 L 0.488281 0 L 1.582031 0 L 1.582031 -1.679688 L 3.460938 -1.679688 L 3.460938 -2.53125 L 1.582031 -2.53125 Z M 1.582031 -3.34375 "/></g></g></g><g fill="#282929" fill-opacity="1"><g transform="translate(71.791887, 140.339548)"><g><path d="M 2.847656 -1.089844 L 3.199219 0 L 4.390625 0 L 2.875 -4.195312 L 1.539062 -4.195312 L 0.0234375 0 L 1.1875 0 L 1.539062 -1.089844 Z M 2.195312 -3.230469 L 2.585938 -1.941406 L 1.804688 -1.941406 Z M 2.195312 -3.230469 "/></g></g></g><g fill="#282929" fill-opacity="1"><g transform="translate(76.426293, 140.339548)"><g><path d="M 1.957031 -4.28125 C 1.125 -4.28125 0.371094 -3.824219 0.371094 -3.015625 C 0.371094 -2.175781 0.929688 -1.878906 1.886719 -1.640625 C 2.402344 -1.515625 2.558594 -1.324219 2.558594 -1.105469 C 2.558594 -0.875 2.328125 -0.71875 2.023438 -0.71875 C 1.695312 -0.71875 1.375 -0.886719 1.300781 -1.285156 L 0.207031 -1.285156 C 0.273438 -0.339844 0.992188 0.0859375 2.054688 0.0859375 C 2.902344 0.0859375 3.703125 -0.339844 3.703125 -1.179688 C 3.703125 -1.824219 3.328125 -2.285156 2.402344 -2.503906 C 1.710938 -2.671875 1.515625 -2.835938 1.515625 -3.101562 C 1.515625 -3.355469 1.683594 -3.480469 1.933594 -3.480469 C 2.292969 -3.480469 2.476562 -3.246094 2.523438 -2.902344 L 3.617188 -2.902344 C 3.527344 -3.679688 3.066406 -4.28125 1.957031 -4.28125 Z M 1.957031 -4.28125 "/></g></g></g><g fill="#282929" fill-opacity="1"><g transform="translate(80.568069, 140.339548)"><g><path d="M 4.355469 -4.195312 L 3.261719 -4.195312 L 3.261719 -2.480469 L 1.582031 -2.480469 L 1.582031 -4.195312 L 0.488281 -4.195312 L 0.488281 0 L 1.582031 0 L 1.582031 -1.628906 L 3.261719 -1.628906 L 3.261719 0 L 4.355469 0 Z M 4.355469 -4.195312 "/></g></g></g><g fill="#282929" fill-opacity="1"><g transform="translate(85.585638, 140.339548)"><g><path d="M 1.582031 0 L 1.582031 -4.195312 L 0.488281 -4.195312 L 0.488281 0 Z M 1.582031 0 "/></g></g></g><g fill="#282929" fill-opacity="1"><g transform="translate(87.829858, 140.339548)"><g><path d="M 2.476562 -4.28125 C 1.167969 -4.28125 0.328125 -3.449219 0.328125 -2.097656 C 0.328125 -0.753906 1.167969 0.0859375 2.476562 0.0859375 C 3.78125 0.0859375 4.621094 -0.753906 4.621094 -2.097656 C 4.621094 -3.449219 3.78125 -4.28125 2.476562 -4.28125 Z M 2.476562 -0.71875 C 1.84375 -0.71875 1.449219 -1.210938 1.449219 -2.097656 C 1.449219 -2.992188 1.84375 -3.480469 2.476562 -3.480469 C 3.109375 -3.480469 3.503906 -2.992188 3.503906 -2.097656 C 3.503906 -1.210938 3.109375 -0.71875 2.476562 -0.71875 Z M 2.476562 -0.71875 "/></g></g></g><g fill="#282929" fill-opacity="1"><g transform="translate(92.956902, 140.339548)"><g><path d="M 4.5 0 L 4.5 -4.195312 L 3.40625 -4.195312 L 3.40625 -2.402344 C 3.40625 -2.160156 3.410156 -1.726562 3.441406 -1.300781 L 1.847656 -4.195312 L 0.488281 -4.195312 L 0.488281 0 L 1.582031 0 L 1.582031 -1.734375 C 1.582031 -1.976562 1.582031 -2.347656 1.542969 -2.773438 L 3.070312 0 Z M 4.5 0 "/></g></g></g><g fill="#282929" fill-opacity="1"><g transform="translate(98.120432, 140.339548)"><g/></g></g><g fill="#282929" fill-opacity="1"><g transform="translate(99.525353, 140.339548)"><g><path d="M 1.957031 -4.28125 C 1.125 -4.28125 0.371094 -3.824219 0.371094 -3.015625 C 0.371094 -2.175781 0.929688 -1.878906 1.886719 -1.640625 C 2.402344 -1.515625 2.558594 -1.324219 2.558594 -1.105469 C 2.558594 -0.875 2.328125 -0.71875 2.023438 -0.71875 C 1.695312 -0.71875 1.375 -0.886719 1.300781 -1.285156 L 0.207031 -1.285156 C 0.273438 -0.339844 0.992188 0.0859375 2.054688 0.0859375 C 2.902344 0.0859375 3.703125 -0.339844 3.703125 -1.179688 C 3.703125 -1.824219 3.328125 -2.285156 2.402344 -2.503906 C 1.710938 -2.671875 1.515625 -2.835938 1.515625 -3.101562 C 1.515625 -3.355469 1.683594 -3.480469 1.933594 -3.480469 C 2.292969 -3.480469 2.476562 -3.246094 2.523438 -2.902344 L 3.617188 -2.902344 C 3.527344 -3.679688 3.066406 -4.28125 1.957031 -4.28125 Z M 1.957031 -4.28125 "/></g></g></g><g fill="#282929" fill-opacity="1"><g transform="translate(103.667129, 140.339548)"><g><path d="M 3.90625 -3.34375 L 3.90625 -4.195312 L 0.0859375 -4.195312 L 0.0859375 -3.34375 L 1.449219 -3.34375 L 1.449219 0 L 2.542969 0 L 2.542969 -3.34375 Z M 3.90625 -3.34375 "/></g></g></g><g fill="#282929" fill-opacity="1"><g transform="translate(107.845399, 140.339548)"><g><path d="M 2.476562 -4.28125 C 1.167969 -4.28125 0.328125 -3.449219 0.328125 -2.097656 C 0.328125 -0.753906 1.167969 0.0859375 2.476562 0.0859375 C 3.78125 0.0859375 4.621094 -0.753906 4.621094 -2.097656 C 4.621094 -3.449219 3.78125 -4.28125 2.476562 -4.28125 Z M 2.476562 -0.71875 C 1.84375 -0.71875 1.449219 -1.210938 1.449219 -2.097656 C 1.449219 -2.992188 1.84375 -3.480469 2.476562 -3.480469 C 3.109375 -3.480469 3.503906 -2.992188 3.503906 -2.097656 C 3.503906 -1.210938 3.109375 -0.71875 2.476562 -0.71875 Z M 2.476562 -0.71875 "/></g></g></g><g fill="#282929" fill-opacity="1"><g transform="translate(112.972443, 140.339548)"><g><path d="M 3.757812 -1.023438 C 3.699219 -1.527344 3.539062 -1.847656 3.101562 -2.007812 C 3.660156 -2.171875 3.945312 -2.523438 3.945312 -3.054688 C 3.945312 -3.796875 3.417969 -4.09375 2.808594 -4.167969 C 2.585938 -4.191406 2.414062 -4.195312 2.152344 -4.195312 L 0.488281 -4.195312 L 0.488281 0 L 1.582031 0 L 1.582031 -1.59375 L 1.824219 -1.59375 C 1.945312 -1.59375 2.050781 -1.59375 2.171875 -1.585938 C 2.449219 -1.570312 2.632812 -1.300781 2.6875 -0.839844 C 2.726562 -0.542969 2.785156 -0.296875 2.882812 0 L 4.074219 0 C 3.910156 -0.25 3.8125 -0.546875 3.757812 -1.023438 Z M 1.582031 -2.382812 L 1.582031 -3.34375 L 2.007812 -3.34375 C 2.121094 -3.34375 2.21875 -3.34375 2.300781 -3.339844 C 2.578125 -3.316406 2.804688 -3.21875 2.804688 -2.863281 C 2.804688 -2.511719 2.546875 -2.414062 2.269531 -2.390625 C 2.191406 -2.382812 2.09375 -2.382812 1.976562 -2.382812 Z M 1.582031 -2.382812 "/></g></g></g><g fill="#282929" fill-opacity="1"><g transform="translate(117.454801, 140.339548)"><g><path d="M 3.703125 -0.851562 L 1.582031 -0.851562 L 1.582031 -1.679688 L 3.519531 -1.679688 L 3.519531 -2.53125 L 1.582031 -2.53125 L 1.582031 -3.34375 L 3.644531 -3.34375 L 3.644531 -4.195312 L 0.488281 -4.195312 L 0.488281 0 L 3.703125 0 Z M 3.703125 -0.851562 "/></g></g></g><g fill="#282929" fill-opacity="1"><g transform="translate(85.73986, 148.589785)"><g><path d="M 2.878906 -0.664062 L 1.230469 -0.664062 L 1.230469 -1.304688 L 2.738281 -1.304688 L 2.738281 -1.96875 L 1.230469 -1.96875 L 1.230469 -2.601562 L 2.832031 -2.601562 L 2.832031 -3.265625 L 0.378906 -3.265625 L 0.378906 0 L 2.878906 0 Z M 2.878906 -0.664062 "/></g></g></g><g fill="#282929" fill-opacity="1"><g transform="translate(89.022805, 148.589785)"><g><path d="M 1.523438 -3.332031 C 0.875 -3.332031 0.289062 -2.976562 0.289062 -2.347656 C 0.289062 -1.695312 0.722656 -1.460938 1.464844 -1.277344 C 1.867188 -1.179688 1.992188 -1.03125 1.992188 -0.859375 C 1.992188 -0.679688 1.8125 -0.558594 1.574219 -0.558594 C 1.320312 -0.558594 1.070312 -0.691406 1.011719 -1 L 0.160156 -1 C 0.210938 -0.265625 0.769531 0.0664062 1.597656 0.0664062 C 2.257812 0.0664062 2.878906 -0.265625 2.878906 -0.917969 C 2.878906 -1.417969 2.585938 -1.777344 1.867188 -1.949219 C 1.328125 -2.078125 1.179688 -2.203125 1.179688 -2.414062 C 1.179688 -2.609375 1.308594 -2.707031 1.503906 -2.707031 C 1.785156 -2.707031 1.925781 -2.527344 1.964844 -2.257812 L 2.816406 -2.257812 C 2.742188 -2.863281 2.382812 -3.332031 1.523438 -3.332031 Z M 1.523438 -3.332031 "/></g></g></g><g fill="#282929" fill-opacity="1"><g transform="translate(92.244252, 148.589785)"><g><path d="M 3.035156 -2.601562 L 3.035156 -3.265625 L 0.0664062 -3.265625 L 0.0664062 -2.601562 L 1.125 -2.601562 L 1.125 0 L 1.976562 0 L 1.976562 -2.601562 Z M 3.035156 -2.601562 "/></g></g></g><g fill="#282929" fill-opacity="1"><g transform="translate(95.494084, 148.589785)"><g><path d="M 0.769531 -2.078125 L 0.847656 -3.476562 L 0.136719 -3.476562 L 0.210938 -2.078125 Z M 0.769531 -2.078125 "/></g></g></g><g fill="#282929" fill-opacity="1"><g transform="translate(96.794959, 148.589785)"><g><path d="M 1.605469 -0.664062 L 2.039062 -1.082031 C 2.667969 -1.6875 2.84375 -1.980469 2.84375 -2.363281 C 2.84375 -2.976562 2.417969 -3.339844 1.65625 -3.339844 C 0.855469 -3.339844 0.402344 -2.9375 0.332031 -2.21875 L 0.328125 -2.171875 L 1.179688 -2.171875 L 1.183594 -2.21875 C 1.214844 -2.558594 1.339844 -2.714844 1.585938 -2.714844 C 1.816406 -2.714844 1.953125 -2.578125 1.953125 -2.332031 C 1.953125 -2.019531 1.789062 -1.792969 1.300781 -1.332031 L 0.273438 -0.367188 L 0.273438 0 L 2.804688 0 L 2.804688 -0.664062 Z M 1.605469 -0.664062 "/></g></g></g><g fill="#282929" fill-opacity="1"><g transform="translate(100.186704, 148.589785)"><g><path d="M 2.960938 -0.726562 L 2.960938 -1.390625 L 2.5625 -1.390625 L 2.5625 -3.265625 L 1.636719 -3.265625 L 0.179688 -1.195312 L 0.179688 -0.726562 L 1.710938 -0.726562 L 1.710938 0 L 2.5625 0 L 2.5625 -0.726562 Z M 1.710938 -1.390625 L 1.054688 -1.390625 L 1.539062 -2.078125 C 1.589844 -2.148438 1.644531 -2.246094 1.710938 -2.363281 Z M 1.710938 -1.390625 "/></g></g></g><path fill="#ff89a9" d="M 130.417969 66.359375 C 130.167969 67.070312 129.722656 67.757812 129.101562 68.351562 C 127.105469 70.277344 113.273438 72.777344 108.074219 73.660156 C 106.851562 73.867188 106.105469 73.988281 106.105469 73.988281 L 102.1875 68.425781 C 102.1875 68.425781 122.640625 59.875 126.953125 61.023438 C 130.183594 61.882812 131.167969 64.234375 130.417969 66.359375 Z M 130.417969 66.359375 " fill-opacity="1" fill-rule="nonzero"/><path fill="#ff89a9" d="M 130.417969 66.359375 C 130.167969 67.070312 129.722656 67.757812 129.101562 68.351562 C 127.105469 70.277344 113.273438 72.777344 108.074219 73.660156 C 107.988281 72.242188 107.859375 70.601562 107.859375 70.601562 C 107.859375 70.601562 124.582031 68.535156 128.308594 66.707031 C 128.929688 66.402344 129.660156 66.300781 130.417969 66.359375 Z M 130.417969 66.359375 " fill-opacity="1" fill-rule="nonzero"/><path fill="#2b2b2b" d="M 102.4375 68.496094 C 103.765625 70.285156 105.054688 72.035156 106.320312 73.835938 L 106.066406 73.730469 C 108.464844 73.085938 110.898438 72.644531 113.332031 72.195312 C 115.761719 71.738281 118.1875 71.253906 120.589844 70.703125 C 121.792969 70.425781 122.992188 70.132812 124.175781 69.804688 C 125.355469 69.476562 126.535156 69.121094 127.632812 68.652344 C 127.773438 68.597656 127.898438 68.53125 128.027344 68.46875 C 128.09375 68.433594 128.160156 68.40625 128.222656 68.371094 L 128.398438 68.265625 C 128.457031 68.230469 128.523438 68.195312 128.570312 68.15625 L 128.710938 68.046875 C 128.757812 68.015625 128.808594 67.960938 128.859375 67.910156 C 128.90625 67.859375 128.960938 67.8125 129.003906 67.757812 C 129.386719 67.339844 129.703125 66.863281 129.90625 66.347656 C 130.117188 65.832031 130.203125 65.28125 130.164062 64.746094 C 130.125 64.207031 129.933594 63.691406 129.632812 63.242188 C 129.328125 62.796875 128.90625 62.421875 128.425781 62.125 C 127.941406 61.835938 127.402344 61.617188 126.835938 61.460938 C 126.597656 61.398438 126.3125 61.371094 126.027344 61.367188 C 125.738281 61.363281 125.441406 61.375 125.144531 61.402344 C 124.550781 61.453125 123.949219 61.554688 123.351562 61.664062 C 122.152344 61.894531 120.960938 62.199219 119.773438 62.527344 C 118.585938 62.855469 117.40625 63.21875 116.230469 63.59375 C 113.878906 64.351562 111.542969 65.160156 109.21875 66.011719 C 108.058594 66.4375 106.898438 66.875 105.742188 67.316406 L 104.011719 67.984375 L 103.148438 68.324219 L 102.714844 68.492188 L 102.5 68.582031 L 102.394531 68.625 L 102.339844 68.644531 L 102.3125 68.65625 C 102.316406 68.652344 102.285156 68.667969 102.316406 68.652344 C 102.375 68.625 102.425781 68.554688 102.4375 68.496094 Z M 101.9375 68.351562 C 101.953125 68.292969 102.015625 68.21875 102.082031 68.1875 L 102.113281 68.171875 L 102.140625 68.164062 L 102.195312 68.140625 L 102.300781 68.09375 L 102.515625 68.003906 L 102.945312 67.820312 L 103.800781 67.460938 L 105.523438 66.753906 C 106.671875 66.289062 107.828125 65.832031 108.984375 65.386719 C 111.300781 64.496094 113.628906 63.632812 115.984375 62.84375 C 117.164062 62.453125 118.351562 62.074219 119.546875 61.730469 C 120.746094 61.382812 121.953125 61.0625 123.183594 60.816406 C 123.800781 60.691406 124.421875 60.582031 125.0625 60.519531 C 125.382812 60.488281 125.707031 60.46875 126.039062 60.46875 C 126.371094 60.472656 126.710938 60.492188 127.070312 60.585938 C 127.703125 60.75 128.324219 60.992188 128.90625 61.332031 C 129.480469 61.675781 130.015625 62.132812 130.414062 62.707031 C 130.808594 63.28125 131.066406 63.964844 131.117188 64.667969 C 131.171875 65.367188 131.058594 66.066406 130.800781 66.703125 C 130.550781 67.339844 130.171875 67.914062 129.722656 68.414062 C 129.667969 68.476562 129.605469 68.535156 129.546875 68.59375 C 129.492188 68.652344 129.433594 68.714844 129.355469 68.773438 L 129.132812 68.953125 C 129.058594 69.011719 128.984375 69.046875 128.910156 69.09375 L 128.691406 69.226562 C 128.617188 69.265625 128.542969 69.300781 128.46875 69.339844 C 128.320312 69.410156 128.171875 69.488281 128.023438 69.546875 C 126.839844 70.058594 125.644531 70.417969 124.441406 70.757812 C 123.238281 71.09375 122.027344 71.394531 120.816406 71.679688 C 118.394531 72.242188 115.960938 72.738281 113.523438 73.207031 C 111.085938 73.675781 108.640625 74.097656 106.148438 74.246094 L 105.988281 74.269531 L 105.894531 74.136719 C 104.542969 72.230469 103.21875 70.269531 101.9375 68.351562 Z M 101.9375 68.351562 " fill-opacity="1" fill-rule="nonzero"/><path fill="#ff89a9" d="M 130.171875 68.320312 C 127.164062 71.46875 123.582031 69.691406 123.582031 69.691406 L 123.238281 69.386719 C 122.941406 69.121094 122.664062 68.847656 122.402344 68.558594 C 120.703125 66.691406 119.734375 64.363281 119.6875 61.957031 C 119.6875 61.957031 123.128906 58.96875 127.132812 59.320312 C 127.710938 59.371094 128.253906 59.53125 128.742188 59.777344 C 131.617188 61.222656 132.742188 65.632812 130.171875 68.320312 Z M 130.171875 68.320312 " fill-opacity="1" fill-rule="nonzero"/><path fill="#ff89a9" d="M 130.171875 68.320312 C 127.164062 71.46875 123.582031 69.691406 123.582031 69.691406 L 123.238281 69.386719 C 122.941406 69.121094 122.664062 68.847656 122.402344 68.558594 L 122.523438 68.300781 C 122.523438 68.300781 125.132812 68.867188 127.808594 67.347656 C 130.011719 66.09375 129.722656 62.167969 128.742188 59.777344 C 131.617188 61.222656 132.742188 65.632812 130.171875 68.320312 Z M 130.171875 68.320312 " fill-opacity="1" fill-rule="nonzero"/><path fill="#2b2b2b" d="M 119.855469 62.15625 C 120.035156 61.753906 119.90625 62.042969 119.945312 61.957031 L 119.945312 61.96875 L 119.949219 61.988281 L 119.949219 62.019531 L 119.953125 62.089844 L 119.957031 62.222656 C 119.964844 62.316406 119.964844 62.40625 119.972656 62.496094 C 119.996094 62.675781 120.007812 62.855469 120.035156 63.035156 C 120.085938 63.394531 120.152344 63.75 120.246094 64.097656 C 120.429688 64.800781 120.691406 65.480469 121.023438 66.125 C 121.355469 66.769531 121.757812 67.378906 122.214844 67.941406 C 122.445312 68.222656 122.691406 68.492188 122.949219 68.75 C 123.203125 69.003906 123.472656 69.25 123.753906 69.5 L 123.699219 69.460938 C 123.933594 69.535156 124.203125 69.605469 124.460938 69.652344 C 124.722656 69.707031 124.988281 69.738281 125.25 69.761719 C 125.773438 69.800781 126.296875 69.773438 126.804688 69.6875 C 127.316406 69.601562 127.800781 69.414062 128.265625 69.199219 L 128.605469 69.007812 L 128.773438 68.910156 L 128.929688 68.792969 L 129.242188 68.5625 C 129.296875 68.527344 129.347656 68.484375 129.394531 68.4375 L 129.535156 68.304688 C 130.335938 67.621094 130.859375 66.699219 131.070312 65.6875 C 131.285156 64.675781 131.160156 63.597656 130.769531 62.632812 C 130.371094 61.679688 129.710938 60.8125 128.828125 60.28125 C 128.390625 60.015625 127.90625 59.824219 127.398438 59.742188 C 127.269531 59.726562 127.148438 59.699219 127.015625 59.695312 L 126.613281 59.675781 L 126.414062 59.667969 C 126.347656 59.664062 126.28125 59.671875 126.214844 59.671875 L 125.8125 59.691406 C 123.671875 59.863281 121.582031 60.839844 119.855469 62.15625 Z M 119.515625 61.761719 C 120.402344 61.003906 121.371094 60.402344 122.414062 59.910156 C 122.679688 59.792969 122.941406 59.671875 123.214844 59.574219 C 123.480469 59.464844 123.757812 59.382812 124.035156 59.296875 C 124.171875 59.246094 124.316406 59.21875 124.457031 59.183594 L 124.882812 59.082031 L 125.316406 59.015625 C 125.460938 58.996094 125.601562 58.964844 125.75 58.960938 L 126.1875 58.933594 C 126.261719 58.929688 126.335938 58.917969 126.410156 58.917969 L 126.628906 58.925781 L 127.070312 58.9375 C 127.21875 58.941406 127.371094 58.96875 127.523438 58.984375 C 128.125 59.074219 128.710938 59.289062 129.234375 59.597656 C 129.765625 59.902344 130.230469 60.304688 130.617188 60.769531 C 131.007812 61.230469 131.328125 61.75 131.554688 62.308594 C 132.011719 63.417969 132.167969 64.664062 131.925781 65.859375 C 131.808594 66.453125 131.59375 67.035156 131.289062 67.5625 C 130.988281 68.089844 130.589844 68.574219 130.140625 68.960938 L 129.976562 69.113281 C 129.925781 69.167969 129.871094 69.21875 129.808594 69.261719 L 129.445312 69.53125 L 129.265625 69.664062 L 129.070312 69.777344 L 128.675781 70.007812 C 128.539062 70.074219 128.398438 70.128906 128.257812 70.1875 L 128.046875 70.277344 C 127.976562 70.304688 127.902344 70.320312 127.832031 70.34375 C 127.683594 70.386719 127.539062 70.433594 127.394531 70.46875 L 126.945312 70.546875 C 126.34375 70.628906 125.734375 70.617188 125.148438 70.511719 C 124.855469 70.460938 124.566406 70.386719 124.289062 70.289062 C 124.003906 70.195312 123.742188 70.082031 123.464844 69.921875 L 123.429688 69.902344 L 123.40625 69.886719 C 123.132812 69.640625 122.847656 69.382812 122.578125 69.117188 C 122.308594 68.847656 122.054688 68.566406 121.8125 68.269531 C 121.332031 67.679688 120.910156 67.039062 120.558594 66.363281 C 120.210938 65.683594 119.933594 64.96875 119.742188 64.226562 C 119.644531 63.859375 119.574219 63.484375 119.519531 63.105469 C 119.488281 62.917969 119.476562 62.726562 119.453125 62.535156 C 119.445312 62.441406 119.445312 62.34375 119.4375 62.25 L 119.433594 62.105469 L 119.429688 62.035156 L 119.425781 62 L 119.425781 61.964844 C 119.464844 61.875 119.335938 62.167969 119.515625 61.761719 Z M 119.515625 61.761719 " fill-opacity="1" fill-rule="nonzero"/><path fill="#ff89a9" d="M 89.195312 64.648438 L 85.113281 67.160156 L 83.398438 68.210938 C 83.398438 68.210938 73.140625 61.734375 67.707031 57.269531 C 66.027344 55.890625 64.808594 54.703125 64.496094 53.957031 C 63.164062 50.796875 64.949219 47.421875 69.363281 48.066406 C 73.777344 48.714844 89.195312 64.648438 89.195312 64.648438 Z M 89.195312 64.648438 " fill-opacity="1" fill-rule="nonzero"/><path fill="#ff89a9" d="M 85.113281 67.160156 L 83.398438 68.210938 C 83.398438 68.210938 73.140625 61.734375 67.707031 57.269531 L 70.742188 56.710938 C 70.742188 56.710938 80.367188 64.054688 85.113281 67.160156 Z M 85.113281 67.160156 " fill-opacity="1" fill-rule="nonzero"/><path fill="#2b2b2b" d="M 89.453125 64.679688 C 87.519531 65.9375 85.527344 67.214844 83.535156 68.433594 L 83.398438 68.515625 L 83.261719 68.429688 C 81.148438 67.125 79.070312 65.777344 77 64.410156 C 74.929688 63.039062 72.882812 61.640625 70.871094 60.179688 C 69.867188 59.449219 68.871094 58.703125 67.894531 57.925781 C 66.917969 57.144531 65.957031 56.347656 65.070312 55.425781 C 64.957031 55.3125 64.855469 55.183594 64.746094 55.0625 C 64.695312 55 64.640625 54.941406 64.585938 54.875 L 64.4375 54.667969 C 64.390625 54.597656 64.335938 54.539062 64.292969 54.457031 L 64.160156 54.214844 C 64.109375 54.128906 64.082031 54.054688 64.054688 53.976562 C 64.023438 53.898438 63.992188 53.824219 63.964844 53.742188 C 63.75 53.113281 63.628906 52.445312 63.648438 51.769531 C 63.660156 51.09375 63.828125 50.410156 64.148438 49.796875 C 64.464844 49.183594 64.964844 48.660156 65.542969 48.289062 C 66.128906 47.921875 66.792969 47.707031 67.453125 47.617188 C 68.117188 47.527344 68.785156 47.546875 69.429688 47.640625 C 69.792969 47.695312 70.113281 47.808594 70.417969 47.933594 C 70.722656 48.0625 71.015625 48.203125 71.296875 48.359375 C 71.859375 48.664062 72.390625 49.007812 72.914062 49.359375 C 74.984375 50.785156 76.886719 52.394531 78.75 54.042969 C 80.609375 55.695312 82.421875 57.390625 84.1875 59.136719 C 85.070312 60.007812 85.953125 60.878906 86.816406 61.769531 L 88.109375 63.109375 L 88.75 63.785156 L 89.066406 64.125 L 89.226562 64.296875 L 89.34375 64.425781 L 89.363281 64.445312 L 89.386719 64.472656 C 89.433594 64.523438 89.460938 64.617188 89.453125 64.679688 Z M 88.9375 64.617188 C 88.925781 64.671875 88.945312 64.757812 88.984375 64.804688 C 89.007812 64.832031 88.988281 64.804688 88.988281 64.808594 L 88.96875 64.789062 L 88.925781 64.75 L 88.679688 64.503906 L 88.34375 64.183594 L 87.679688 63.535156 L 86.339844 62.25 C 85.445312 61.398438 84.554688 60.535156 83.652344 59.691406 C 81.84375 58.003906 80.03125 56.320312 78.175781 54.695312 C 77.246094 53.882812 76.300781 53.085938 75.347656 52.308594 C 74.394531 51.53125 73.421875 50.777344 72.417969 50.085938 C 71.914062 49.742188 71.402344 49.410156 70.878906 49.125 C 70.617188 48.980469 70.351562 48.851562 70.085938 48.738281 C 69.820312 48.625 69.550781 48.535156 69.300781 48.496094 C 68.722656 48.414062 68.136719 48.394531 67.570312 48.46875 C 67.007812 48.542969 66.464844 48.71875 66 49.011719 C 65.539062 49.304688 65.148438 49.707031 64.894531 50.195312 C 64.640625 50.679688 64.5 51.230469 64.488281 51.792969 C 64.46875 52.355469 64.570312 52.925781 64.757812 53.46875 C 64.777344 53.535156 64.808594 53.601562 64.832031 53.667969 C 64.855469 53.738281 64.882812 53.808594 64.914062 53.855469 L 65.003906 54.023438 C 65.03125 54.078125 65.082031 54.136719 65.117188 54.191406 L 65.238281 54.363281 C 65.285156 54.421875 65.332031 54.476562 65.378906 54.53125 C 65.476562 54.644531 65.566406 54.757812 65.671875 54.863281 C 66.492188 55.738281 67.433594 56.539062 68.386719 57.3125 C 69.339844 58.089844 70.324219 58.839844 71.3125 59.574219 C 75.292969 62.503906 79.398438 65.285156 83.539062 67.988281 L 83.265625 67.988281 C 85.136719 66.832031 87.011719 65.734375 88.9375 64.617188 Z M 88.9375 64.617188 " fill-opacity="1" fill-rule="nonzero"/><path fill="#ff89a9" d="M 75.671875 51.800781 C 74.703125 53.933594 72.964844 55.65625 70.746094 56.710938 C 70.335938 56.902344 69.914062 57.074219 69.476562 57.222656 L 69.039062 57.367188 C 69.039062 57.367188 65.046875 57.585938 63.527344 53.503906 C 62.75 51.414062 63.433594 49.277344 64.800781 47.863281 C 66.101562 46.515625 68.015625 45.824219 69.875 46.433594 C 73.6875 47.691406 75.671875 51.800781 75.671875 51.800781 Z M 75.671875 51.800781 " fill-opacity="1" fill-rule="nonzero"/><path fill="#ff89a9" d="M 71.351562 56.269531 L 70.746094 56.710938 C 70.335938 56.902344 69.914062 57.074219 69.476562 57.21875 L 69.039062 57.363281 C 69.039062 57.363281 65.046875 57.585938 63.527344 53.503906 C 62.75 51.410156 63.433594 49.277344 64.800781 47.859375 C 64.484375 49.65625 63.839844 56.199219 71.351562 56.269531 Z M 71.351562 56.269531 " fill-opacity="1" fill-rule="nonzero"/><path fill="#2b2b2b" d="M 68.484375 46.472656 C 67.230469 46.472656 65.964844 47.027344 64.980469 48.050781 C 63.554688 49.53125 63.089844 51.585938 63.769531 53.414062 C 65.148438 57.109375 68.589844 57.117188 68.992188 57.105469 L 69.390625 56.972656 C 72.082031 56.074219 74.257812 54.191406 75.382812 51.804688 C 75.039062 51.15625 73.113281 47.777344 69.792969 46.683594 C 69.367188 46.542969 68.925781 46.472656 68.484375 46.472656 Z M 68.960938 57.628906 C 68.339844 57.628906 64.722656 57.457031 63.28125 53.59375 C 62.53125 51.578125 63.039062 49.316406 64.605469 47.6875 C 66.078125 46.160156 68.128906 45.585938 69.957031 46.1875 C 73.828125 47.464844 75.824219 51.511719 75.90625 51.683594 L 75.960938 51.792969 L 75.910156 51.90625 C 74.742188 54.480469 72.425781 56.507812 69.558594 57.46875 L 69.089844 57.625 L 69.054688 57.625 C 69.050781 57.625 69.019531 57.628906 68.960938 57.628906 Z M 68.960938 57.628906 " fill-opacity="1" fill-rule="nonzero"/><path fill="#ff89a9" d="M 107.175781 114.140625 L 101.09375 115.257812 C 100.5 115.367188 99.914062 115.324219 99.378906 115.160156 C 98.289062 114.824219 97.402344 113.980469 97.074219 112.847656 C 97.0625 112.804688 97.046875 112.765625 97.039062 112.726562 L 93.542969 98.742188 C 93.164062 97.21875 87.621094 92.136719 87.558594 89.777344 L 87.894531 89.714844 L 91.136719 89.117188 L 89.597656 82.960938 C 89.109375 81 90.460938 79.035156 92.515625 78.71875 L 95.109375 78.320312 C 96.769531 78.066406 98.371094 78.976562 98.945312 80.503906 L 109.410156 108.316406 L 109.875 109.554688 C 110.628906 111.550781 109.339844 113.742188 107.175781 114.140625 Z M 107.175781 114.140625 " fill-opacity="1" fill-rule="nonzero"/><path fill="#ff89a9" d="M 100.707031 109.03125 L 99.378906 115.160156 C 98.289062 114.824219 97.402344 113.980469 97.074219 112.847656 C 97.0625 112.804688 97.046875 112.765625 97.039062 112.726562 L 93.542969 98.742188 C 93.164062 97.21875 87.621094 92.136719 87.558594 89.777344 L 87.894531 89.714844 L 94.765625 93.230469 Z M 100.707031 109.03125 " fill-opacity="1" fill-rule="nonzero"/><path fill="#2b2b2b" d="M 110.378906 109.363281 C 110.558594 109.847656 110.648438 110.367188 110.628906 110.886719 C 110.609375 111.40625 110.488281 111.917969 110.273438 112.390625 C 109.84375 113.332031 109.03125 114.082031 108.074219 114.46875 C 107.953125 114.511719 107.832031 114.558594 107.707031 114.597656 L 107.335938 114.691406 C 107.101562 114.738281 106.890625 114.773438 106.667969 114.816406 L 105.355469 115.066406 L 102.726562 115.566406 L 101.414062 115.816406 C 101.300781 115.835938 101.199219 115.859375 101.0625 115.875 C 100.933594 115.894531 100.804688 115.917969 100.675781 115.917969 C 100.542969 115.925781 100.414062 115.933594 100.285156 115.925781 C 100.152344 115.917969 100.023438 115.917969 99.894531 115.894531 C 98.855469 115.769531 97.867188 115.238281 97.203125 114.414062 C 97.117188 114.3125 97.042969 114.203125 96.964844 114.09375 C 96.894531 113.984375 96.832031 113.867188 96.765625 113.753906 C 96.707031 113.632812 96.652344 113.515625 96.597656 113.394531 L 96.46875 113.027344 C 96.425781 112.871094 96.402344 112.777344 96.375 112.667969 L 96.128906 111.695312 L 95.476562 109.101562 L 94.195312 103.90625 L 92.945312 98.789062 C 92.894531 98.652344 92.789062 98.46875 92.683594 98.300781 C 92.574219 98.125 92.453125 97.949219 92.328125 97.777344 C 92.074219 97.425781 91.804688 97.082031 91.527344 96.734375 C 90.980469 96.039062 90.417969 95.339844 89.871094 94.628906 C 89.328125 93.914062 88.785156 93.191406 88.308594 92.410156 C 88.070312 92.019531 87.84375 91.621094 87.652344 91.191406 C 87.460938 90.765625 87.304688 90.304688 87.296875 89.785156 L 87.296875 89.78125 L 87.277344 89.5625 L 87.511719 89.519531 L 91.089844 88.863281 L 90.886719 89.183594 L 89.3125 83.058594 C 89.164062 82.507812 89.152344 81.914062 89.277344 81.351562 C 89.402344 80.789062 89.65625 80.257812 90.011719 79.808594 C 90.367188 79.355469 90.828125 78.988281 91.347656 78.738281 C 91.605469 78.613281 91.878906 78.511719 92.160156 78.449219 C 92.449219 78.378906 92.699219 78.34375 92.960938 78.300781 L 94.523438 78.054688 C 94.785156 78.011719 95.027344 77.964844 95.328125 77.9375 C 95.472656 77.921875 95.617188 77.921875 95.761719 77.921875 C 95.90625 77.929688 96.050781 77.929688 96.195312 77.953125 C 97.347656 78.089844 98.421875 78.785156 99.023438 79.796875 C 99.089844 79.925781 99.167969 80.050781 99.222656 80.1875 L 99.304688 80.386719 L 99.378906 80.570312 L 100.222656 82.785156 L 101.351562 85.738281 Z M 109.371094 109.742188 L 100.589844 86.027344 L 99.492188 83.0625 L 98.941406 81.582031 L 98.667969 80.839844 L 98.601562 80.65625 L 98.53125 80.492188 C 98.492188 80.378906 98.429688 80.28125 98.375 80.175781 C 97.90625 79.367188 97.042969 78.789062 96.101562 78.667969 C 95.984375 78.644531 95.863281 78.644531 95.746094 78.636719 C 95.628906 78.636719 95.507812 78.632812 95.390625 78.644531 C 95.164062 78.664062 94.886719 78.710938 94.632812 78.75 L 93.066406 78.980469 C 92.808594 79.019531 92.539062 79.054688 92.3125 79.105469 C 92.078125 79.15625 91.855469 79.238281 91.636719 79.335938 C 91.203125 79.539062 90.816406 79.839844 90.515625 80.214844 C 89.90625 80.953125 89.65625 81.972656 89.898438 82.914062 L 91.390625 89.054688 L 91.457031 89.328125 L 91.183594 89.375 L 87.605469 90.03125 L 87.820312 89.769531 C 87.863281 90.144531 88.035156 90.53125 88.234375 90.90625 C 88.441406 91.277344 88.683594 91.636719 88.941406 91.988281 C 89.460938 92.6875 90.023438 93.367188 90.601562 94.035156 L 92.359375 96.054688 C 92.648438 96.398438 92.9375 96.742188 93.222656 97.109375 C 93.363281 97.289062 93.503906 97.476562 93.640625 97.675781 C 93.773438 97.882812 93.910156 98.078125 94.023438 98.351562 C 94.054688 98.421875 94.078125 98.507812 94.105469 98.582031 L 94.148438 98.75 L 94.230469 99.074219 L 94.402344 99.722656 L 94.738281 101.015625 L 95.398438 103.609375 L 96.714844 108.800781 L 97.359375 111.398438 L 97.675781 112.660156 C 97.78125 113.027344 97.945312 113.339844 98.175781 113.628906 C 98.632812 114.195312 99.320312 114.574219 100.050781 114.675781 C 100.144531 114.691406 100.234375 114.695312 100.328125 114.699219 C 100.421875 114.707031 100.511719 114.699219 100.605469 114.699219 C 100.699219 114.699219 100.789062 114.683594 100.882812 114.671875 C 100.96875 114.664062 101.082031 114.640625 101.191406 114.621094 L 102.511719 114.386719 L 106.460938 113.683594 C 106.679688 113.644531 106.910156 113.609375 107.113281 113.566406 L 107.386719 113.503906 C 107.476562 113.472656 107.566406 113.441406 107.65625 113.410156 C 108.351562 113.136719 108.949219 112.601562 109.269531 111.921875 C 109.59375 111.242188 109.628906 110.449219 109.371094 109.742188 Z M 109.371094 109.742188 " fill-opacity="1" fill-rule="nonzero"/><path fill="#ff89a9" d="M 92.5 86.421875 L 90.609375 91.433594 C 90.058594 91.871094 89.054688 92.503906 87.890625 93.210938 C 85.15625 94.859375 81.53125 96.890625 80.734375 97.652344 L 70.757812 107.171875 L 70.304688 107.601562 C 70.101562 107.796875 69.882812 107.960938 69.648438 108.09375 C 68.363281 108.824219 66.6875 108.648438 65.527344 107.578125 L 60.984375 103.382812 C 59.367188 101.890625 59.449219 99.351562 61.152344 98.0625 L 61.789062 97.582031 L 85.910156 79.347656 C 87.214844 78.367188 89.054688 78.449219 90.324219 79.550781 L 92.300781 81.277344 C 93.871094 82.640625 93.960938 85.023438 92.5 86.421875 Z M 92.5 86.421875 " fill-opacity="1" fill-rule="nonzero"/><path fill="#f6f4f1" d="M 76.015625 89.058594 L 64.472656 97.261719 L 63.253906 97.070312 L 62.601562 96.964844 L 61.949219 96.863281 L 74.96875 87.09375 L 75.367188 87.84375 Z M 76.015625 89.058594 " fill-opacity="1" fill-rule="nonzero"/><path fill="#ff89a9" d="M 88.320312 92.203125 C 88.3125 92.257812 88.152344 92.625 87.890625 93.210938 C 85.15625 94.859375 81.53125 96.890625 80.734375 97.652344 L 70.757812 107.171875 L 70.304688 107.601562 C 70.101562 107.796875 69.882812 107.960938 69.648438 108.09375 L 70.085938 100.859375 L 82.324219 91.453125 C 82.328125 91.453125 88.382812 91.828125 88.320312 92.203125 Z M 88.320312 92.203125 " fill-opacity="1" fill-rule="nonzero"/><path fill="#2b2b2b" d="M 92.277344 86.28125 L 92.257812 86.328125 L 90.402344 91.28125 C 90.316406 91.332031 90.234375 91.378906 90.152344 91.429688 L 90.035156 91.511719 L 89.890625 91.597656 C 89.699219 91.71875 89.511719 91.839844 89.316406 91.957031 C 88.929688 92.191406 88.535156 92.417969 88.140625 92.644531 C 88.140625 92.644531 88.140625 92.644531 88.136719 92.644531 L 85.75 93.992188 C 84.953125 94.4375 84.160156 94.894531 83.363281 95.351562 C 82.964844 95.582031 82.570312 95.816406 82.175781 96.058594 C 81.78125 96.300781 81.390625 96.542969 80.996094 96.816406 L 80.703125 97.027344 L 80.398438 97.277344 L 79.898438 97.746094 L 78.902344 98.691406 L 76.914062 100.582031 L 72.945312 104.378906 L 70.964844 106.277344 L 69.972656 107.222656 C 69.878906 107.3125 69.785156 107.394531 69.6875 107.464844 C 69.472656 107.625 69.242188 107.753906 68.988281 107.84375 C 68.257812 108.121094 67.414062 108.085938 66.699219 107.757812 C 66.605469 107.722656 66.519531 107.675781 66.4375 107.625 C 66.347656 107.582031 66.265625 107.523438 66.1875 107.464844 C 66.101562 107.414062 66.027344 107.347656 65.953125 107.285156 C 65.878906 107.226562 65.792969 107.148438 65.710938 107.070312 L 64.699219 106.140625 L 62.679688 104.28125 L 61.671875 103.351562 C 61.3125 103.027344 61.039062 102.769531 60.820312 102.4375 C 60.371094 101.78125 60.214844 100.945312 60.367188 100.175781 C 60.445312 99.792969 60.597656 99.421875 60.816406 99.101562 C 60.878906 99.023438 60.925781 98.941406 60.996094 98.871094 C 61.0625 98.800781 61.128906 98.726562 61.195312 98.65625 L 61.421875 98.464844 C 61.5 98.398438 61.601562 98.328125 61.6875 98.257812 L 63.253906 97.070312 L 75.367188 87.84375 L 79.160156 84.957031 L 83.523438 81.625 L 85.703125 79.957031 L 85.976562 79.746094 L 86.109375 79.644531 L 86.238281 79.554688 C 86.320312 79.492188 86.40625 79.441406 86.5 79.390625 C 86.585938 79.335938 86.679688 79.300781 86.773438 79.257812 C 87.148438 79.089844 87.5625 79.011719 87.972656 79.007812 C 88.386719 79.007812 88.800781 79.082031 89.1875 79.238281 C 89.378906 79.316406 89.566406 79.410156 89.738281 79.523438 C 89.828125 79.578125 89.914062 79.640625 89.992188 79.707031 L 90.117188 79.804688 L 90.246094 79.914062 L 91.289062 80.8125 L 91.808594 81.257812 L 92.066406 81.480469 C 92.152344 81.554688 92.21875 81.628906 92.296875 81.699219 C 92.886719 82.296875 93.246094 83.117188 93.253906 83.960938 L 93.253906 84.019531 C 93.253906 84.839844 92.917969 85.65625 92.320312 86.230469 Z M 92.738281 81.273438 C 92.648438 81.1875 92.558594 81.09375 92.472656 81.015625 L 91.699219 80.335938 L 90.667969 79.425781 L 90.539062 79.3125 L 90.394531 79.195312 C 90.300781 79.113281 90.199219 79.042969 90.09375 78.976562 C 89.886719 78.835938 89.664062 78.722656 89.433594 78.625 C 88.976562 78.429688 88.472656 78.332031 87.972656 78.328125 C 87.472656 78.324219 86.964844 78.414062 86.5 78.613281 C 86.386719 78.664062 86.269531 78.710938 86.160156 78.773438 C 86.046875 78.835938 85.9375 78.894531 85.835938 78.972656 L 85.683594 79.078125 L 85.542969 79.179688 L 85.269531 79.386719 L 83.066406 81.027344 L 78.671875 84.3125 L 74.96875 87.09375 L 61.949219 96.863281 L 61.109375 97.492188 C 61.015625 97.5625 60.929688 97.625 60.832031 97.703125 L 60.535156 97.957031 C 60.441406 98.046875 60.351562 98.144531 60.265625 98.242188 C 60.175781 98.339844 60.105469 98.449219 60.027344 98.554688 C 59.726562 98.984375 59.519531 99.476562 59.417969 99.988281 C 59.210938 101.011719 59.421875 102.113281 60.003906 102.976562 C 60.070312 103.085938 60.160156 103.183594 60.234375 103.285156 C 60.3125 103.394531 60.402344 103.488281 60.492188 103.578125 L 60.628906 103.71875 C 60.675781 103.765625 60.710938 103.796875 60.757812 103.835938 L 61.007812 104.070312 L 62.015625 105.003906 L 64.027344 106.867188 L 65.035156 107.800781 C 65.117188 107.875 65.199219 107.953125 65.304688 108.039062 C 65.402344 108.121094 65.503906 108.207031 65.613281 108.277344 C 65.71875 108.351562 65.824219 108.429688 65.941406 108.492188 C 66.050781 108.554688 66.167969 108.617188 66.285156 108.667969 C 67.234375 109.101562 68.355469 109.15625 69.339844 108.785156 C 69.832031 108.605469 70.292969 108.316406 70.667969 107.953125 L 71.660156 107.007812 L 73.648438 105.117188 L 77.625 101.332031 L 79.605469 99.433594 L 80.597656 98.480469 L 81.089844 98.007812 L 81.3125 97.816406 L 81.574219 97.625 C 82.289062 97.109375 83.074219 96.636719 83.84375 96.152344 L 86.179688 94.714844 C 86.957031 94.234375 87.734375 93.75 88.503906 93.246094 C 88.890625 92.992188 89.273438 92.738281 89.652344 92.476562 C 89.84375 92.347656 90.03125 92.210938 90.21875 92.070312 L 90.359375 91.96875 L 90.515625 91.84375 C 90.617188 91.757812 90.71875 91.671875 90.820312 91.585938 L 92.722656 86.566406 C 93.417969 85.894531 93.820312 84.929688 93.820312 83.957031 C 93.828125 82.96875 93.425781 81.984375 92.738281 81.273438 Z M 92.738281 81.273438 " fill-opacity="1" fill-rule="nonzero"/><path fill="#ff89a9" d="M 73.074219 85.277344 L 72.699219 86.96875 C 72.535156 87.703125 72.945312 88.441406 73.65625 88.683594 C 76.355469 89.617188 82.945312 91.816406 88.242188 93 C 93.554688 94.183594 100.734375 95.1875 103.671875 95.578125 C 104.433594 95.679688 105.140625 95.183594 105.304688 94.4375 L 106.007812 91.292969 C 106.191406 90.472656 105.652344 89.667969 104.828125 89.519531 L 74.773438 84.144531 C 73.996094 84.003906 73.246094 84.503906 73.074219 85.277344 Z M 73.074219 85.277344 " fill-opacity="1" fill-rule="nonzero"/><path fill="#ff89a9" d="M 73.15625 84.480469 L 72.777344 86.171875 C 72.613281 86.90625 73.023438 87.644531 73.734375 87.886719 C 76.4375 88.820312 83.023438 91.023438 88.320312 92.203125 C 93.632812 93.386719 100.8125 94.390625 103.753906 94.78125 C 104.511719 94.882812 105.21875 94.386719 105.386719 93.640625 L 106.085938 90.496094 C 106.269531 89.675781 105.730469 88.871094 104.90625 88.722656 L 74.855469 83.347656 C 74.074219 83.210938 73.328125 83.707031 73.15625 84.480469 Z M 73.15625 84.480469 " fill-opacity="1" fill-rule="nonzero"/><path fill="#2b2b2b" d="M 74.511719 84.382812 C 73.953125 84.382812 73.457031 84.769531 73.328125 85.332031 L 72.953125 87.027344 C 72.816406 87.628906 73.15625 88.238281 73.738281 88.4375 C 76.351562 89.339844 82.992188 91.5625 88.300781 92.746094 C 93.621094 93.933594 100.847656 94.941406 103.707031 95.320312 C 104.335938 95.402344 104.914062 94.996094 105.050781 94.378906 L 105.753906 91.234375 C 105.824219 90.910156 105.765625 90.574219 105.578125 90.296875 C 105.394531 90.019531 105.109375 89.832031 104.78125 89.773438 L 74.726562 84.402344 C 74.65625 84.386719 74.582031 84.382812 74.511719 84.382812 Z M 103.875 95.851562 C 103.796875 95.851562 103.71875 95.84375 103.640625 95.835938 C 100.773438 95.457031 93.527344 94.445312 88.183594 93.253906 C 82.855469 92.0625 76.1875 89.832031 73.570312 88.929688 C 72.734375 88.640625 72.25 87.773438 72.445312 86.910156 L 72.820312 85.21875 C 73.023438 84.308594 73.902344 83.722656 74.820312 83.886719 L 104.875 89.261719 C 105.34375 89.34375 105.746094 89.609375 106.011719 90.007812 C 106.277344 90.40625 106.367188 90.882812 106.261719 91.347656 L 105.5625 94.492188 C 105.378906 95.300781 104.675781 95.851562 103.875 95.851562 Z M 103.875 95.851562 " fill-opacity="1" fill-rule="nonzero"/><path fill="#ff89a9" d="M 108.65625 89.507812 C 107.992188 92.292969 104.71875 93.199219 101.050781 93.289062 C 95.617188 93.414062 89.320312 91.753906 89.320312 91.753906 C 89.320312 91.753906 82.910156 90.582031 78.050781 88.15625 C 76.121094 87.195312 74.429688 86.035156 73.488281 84.671875 C 72.828125 83.714844 72.527344 82.660156 72.769531 81.503906 C 73.875 76.179688 82.269531 63.453125 86.152344 57.769531 C 87.347656 56.027344 88.113281 54.945312 88.113281 54.945312 L 96.957031 57.511719 L 106.054688 58.945312 C 106.054688 58.945312 110.308594 82.597656 108.65625 89.507812 Z M 108.65625 89.507812 " fill-opacity="1" fill-rule="nonzero"/><path fill="#ff89a9" d="M 90.527344 62.589844 C 90.527344 62.589844 89.117188 63.761719 87.886719 65.765625 C 86.660156 67.773438 81.519531 72.375 79.546875 73.25 C 77.574219 74.128906 73.234375 82.367188 73.601562 84.121094 C 73.652344 84.371094 73.605469 84.546875 73.488281 84.667969 C 72.828125 83.714844 72.527344 82.660156 72.769531 81.503906 C 73.875 76.179688 82.269531 63.453125 86.152344 57.769531 Z M 90.527344 62.589844 " fill-opacity="1" fill-rule="nonzero"/><path fill="#2b2b2b" d="M 108.09375 89.375 C 108.339844 88.199219 108.417969 86.933594 108.460938 85.675781 C 108.496094 84.414062 108.472656 83.140625 108.421875 81.867188 C 108.316406 79.320312 108.105469 76.769531 107.847656 74.222656 C 107.585938 71.675781 107.277344 69.132812 106.933594 66.597656 C 106.589844 64.058594 106.214844 61.519531 105.800781 58.992188 L 106.015625 59.203125 L 96.917969 57.769531 L 96.902344 57.769531 L 96.886719 57.761719 L 88.039062 55.195312 L 88.324219 55.097656 C 85.863281 58.632812 83.484375 62.230469 81.191406 65.878906 C 80.046875 67.707031 78.929688 69.546875 77.855469 71.410156 C 76.789062 73.277344 75.746094 75.164062 74.835938 77.101562 C 74.378906 78.066406 73.945312 79.046875 73.597656 80.046875 C 73.507812 80.292969 73.4375 80.546875 73.359375 80.796875 C 73.28125 81.046875 73.230469 81.300781 73.167969 81.550781 C 73.074219 82.035156 73.070312 82.515625 73.167969 82.988281 C 73.382812 83.933594 73.996094 84.777344 74.75 85.476562 C 75.503906 86.175781 76.382812 86.761719 77.304688 87.273438 C 78.226562 87.785156 79.199219 88.222656 80.183594 88.628906 C 81.167969 89.027344 82.179688 89.378906 83.195312 89.703125 C 84.214844 90.027344 85.246094 90.316406 86.285156 90.578125 C 87.320312 90.839844 88.371094 91.078125 89.410156 91.273438 L 89.425781 91.277344 L 89.445312 91.28125 C 90.273438 91.488281 91.128906 91.671875 91.980469 91.839844 C 92.832031 92.003906 93.6875 92.152344 94.542969 92.277344 C 96.257812 92.535156 97.984375 92.707031 99.703125 92.746094 C 100.5625 92.761719 101.421875 92.753906 102.269531 92.675781 C 103.113281 92.601562 103.953125 92.472656 104.75 92.25 C 105.542969 92.023438 106.296875 91.691406 106.902344 91.21875 C 107.507812 90.746094 107.910156 90.101562 108.09375 89.375 Z M 109.222656 89.640625 C 108.980469 90.613281 108.390625 91.523438 107.605469 92.109375 C 106.824219 92.710938 105.933594 93.078125 105.046875 93.324219 C 104.15625 93.5625 103.253906 93.691406 102.355469 93.765625 C 101.460938 93.835938 100.566406 93.839844 99.675781 93.8125 C 97.894531 93.757812 96.132812 93.566406 94.390625 93.289062 C 93.515625 93.152344 92.648438 92.996094 91.785156 92.820312 C 90.917969 92.640625 90.0625 92.449219 89.195312 92.226562 L 89.230469 92.234375 C 88.152344 92.019531 87.101562 91.769531 86.046875 91.496094 C 84.996094 91.21875 83.949219 90.917969 82.914062 90.578125 C 81.878906 90.238281 80.855469 89.867188 79.84375 89.453125 C 78.835938 89.027344 77.839844 88.566406 76.882812 88.023438 C 75.921875 87.480469 74.996094 86.855469 74.175781 86.082031 C 73.769531 85.6875 73.378906 85.265625 73.070312 84.773438 C 72.761719 84.285156 72.5 83.746094 72.382812 83.160156 C 72.261719 82.574219 72.273438 81.960938 72.390625 81.386719 C 72.464844 81.117188 72.519531 80.839844 72.605469 80.574219 C 72.691406 80.3125 72.769531 80.042969 72.867188 79.789062 C 73.234375 78.75 73.6875 77.757812 74.160156 76.777344 C 75.101562 74.820312 76.167969 72.933594 77.257812 71.0625 C 78.351562 69.199219 79.492188 67.359375 80.652344 65.539062 C 82.984375 61.898438 85.402344 58.320312 87.898438 54.792969 L 88.007812 54.640625 L 88.183594 54.695312 L 97.03125 57.261719 L 97 57.253906 L 106.097656 58.6875 L 106.28125 58.71875 L 106.3125 58.898438 C 106.785156 61.425781 107.21875 63.957031 107.621094 66.492188 C 108.023438 69.03125 108.390625 71.574219 108.714844 74.125 C 109.03125 76.675781 109.304688 79.234375 109.472656 81.8125 C 109.550781 83.101562 109.605469 84.394531 109.597656 85.695312 C 109.585938 86.996094 109.527344 88.308594 109.222656 89.640625 Z M 109.222656 89.640625 " fill-opacity="1" fill-rule="nonzero"/><path fill="#ff89a9" d="M 102.179688 65.863281 C 102.179688 65.863281 102.546875 77.074219 108.625 79.820312 C 108.164062 74.214844 107.257812 67.980469 106.621094 64 C 104.996094 64.597656 102.179688 65.863281 102.179688 65.863281 Z M 102.179688 65.863281 " fill-opacity="1" fill-rule="nonzero"/><path fill="#2b2b2b" d="M 102.449219 66.03125 C 102.527344 67.414062 103.242188 76.640625 108.328125 79.382812 C 107.875 74.101562 107.050781 68.375 106.414062 64.355469 C 105.03125 64.886719 103.027344 65.773438 102.449219 66.03125 Z M 108.914062 80.160156 L 108.515625 80.054688 C 102.363281 77.277344 101.933594 66.339844 101.917969 65.875 L 101.914062 65.699219 L 102.074219 65.628906 C 102.101562 65.613281 104.914062 64.351562 106.53125 63.753906 L 106.828125 63.644531 L 106.878906 63.957031 C 107.539062 68.113281 108.425781 74.234375 108.882812 79.796875 Z M 108.914062 80.160156 " fill-opacity="1" fill-rule="nonzero"/><path fill="#ff89a9" d="M 89.019531 62.0625 C 89.019531 62.0625 83.925781 72.054688 77.257812 71.957031 C 80.054688 67.078125 83.527344 61.820312 85.792969 58.488281 C 87.011719 59.722656 89.019531 62.0625 89.019531 62.0625 Z M 89.019531 62.0625 " fill-opacity="1" fill-rule="nonzero"/><path fill="#2b2b2b" d="M 85.828125 58.898438 C 83.542969 62.265625 80.367188 67.101562 77.710938 71.6875 C 83.480469 71.363281 88.046875 63.316406 88.707031 62.097656 C 88.292969 61.617188 86.855469 59.964844 85.828125 58.898438 Z M 77.359375 72.21875 C 77.324219 72.21875 77.289062 72.21875 77.253906 72.214844 L 77.207031 72.210938 L 76.851562 72.140625 L 77.03125 71.828125 C 79.808594 66.988281 83.210938 61.824219 85.578125 58.34375 L 85.757812 58.082031 L 85.976562 58.304688 C 87.1875 59.53125 89.199219 61.871094 89.21875 61.894531 L 89.332031 62.027344 L 89.253906 62.183594 C 89.042969 62.59375 84.054688 72.21875 77.359375 72.21875 Z M 77.359375 72.21875 " fill-opacity="1" fill-rule="nonzero"/><path fill="#ff89a9" d="M 103.976562 80.164062 L 101.050781 93.289062 C 95.621094 93.414062 89.320312 91.753906 89.320312 91.753906 C 89.320312 91.753906 84.054688 90.789062 79.453125 88.808594 C 78.976562 88.601562 78.507812 88.382812 78.050781 88.15625 L 80.976562 75.03125 C 81.25 73.804688 82.46875 73.03125 83.691406 73.308594 L 86.328125 73.894531 L 102.25 77.445312 C 103.480469 77.71875 104.25 78.9375 103.976562 80.164062 Z M 103.976562 80.164062 " fill-opacity="1" fill-rule="nonzero"/><path fill="#ff89a9" d="M 87.34375 74.457031 C 87.34375 74.457031 83.042969 73.628906 82.324219 75.300781 C 81.722656 76.703125 80 85.863281 79.453125 88.808594 C 78.976562 88.601562 78.507812 88.382812 78.050781 88.15625 L 80.976562 75.03125 C 81.25 73.804688 82.46875 73.03125 83.691406 73.308594 L 86.328125 73.894531 Z M 87.34375 74.457031 " fill-opacity="1" fill-rule="nonzero"/><path fill="#2b2b2b" d="M 103.660156 80.09375 C 103.730469 79.746094 103.71875 79.382812 103.601562 79.046875 C 103.492188 78.710938 103.28125 78.410156 103.015625 78.179688 C 102.878906 78.066406 102.726562 77.972656 102.570312 77.898438 C 102.488281 77.867188 102.40625 77.828125 102.320312 77.804688 L 102.191406 77.769531 L 102.042969 77.734375 L 100.835938 77.464844 L 96.003906 76.386719 L 86.339844 74.234375 L 83.925781 73.695312 L 83.621094 73.625 C 83.535156 73.613281 83.449219 73.589844 83.359375 73.589844 C 83.183594 73.566406 83.007812 73.585938 82.832031 73.613281 C 82.660156 73.648438 82.492188 73.707031 82.332031 73.785156 C 82.175781 73.867188 82.023438 73.960938 81.894531 74.082031 C 81.765625 74.203125 81.644531 74.335938 81.554688 74.484375 C 81.457031 74.632812 81.386719 74.796875 81.335938 74.964844 L 81.296875 75.09375 L 81.265625 75.242188 L 81.195312 75.542969 L 81.0625 76.148438 L 80.519531 78.5625 L 78.867188 85.804688 L 78.304688 88.214844 L 78.164062 87.925781 C 79.046875 88.351562 79.945312 88.746094 80.859375 89.097656 C 81.78125 89.445312 82.707031 89.769531 83.648438 90.054688 C 84.589844 90.34375 85.535156 90.613281 86.488281 90.851562 C 87.441406 91.09375 88.40625 91.316406 89.367188 91.5 L 89.375 91.5 L 89.386719 91.503906 C 90.332031 91.746094 91.296875 91.953125 92.261719 92.140625 C 93.230469 92.328125 94.199219 92.488281 95.175781 92.628906 C 96.148438 92.765625 97.125 92.867188 98.105469 92.945312 C 99.082031 93.015625 100.0625 93.042969 101.042969 93.027344 L 100.792969 93.230469 L 101.5 89.945312 L 102.21875 86.660156 Z M 104.296875 80.234375 L 102.808594 86.789062 L 102.0625 90.070312 L 101.304688 93.34375 L 101.257812 93.546875 L 101.054688 93.546875 C 100.058594 93.558594 99.058594 93.535156 98.066406 93.460938 C 97.074219 93.382812 96.085938 93.28125 95.101562 93.140625 C 94.121094 93 93.140625 92.835938 92.164062 92.648438 C 91.1875 92.460938 90.222656 92.25 89.253906 92.003906 L 89.273438 92.011719 C 88.289062 91.820312 87.328125 91.597656 86.363281 91.355469 C 85.402344 91.113281 84.445312 90.84375 83.496094 90.550781 C 82.542969 90.261719 81.605469 89.933594 80.675781 89.582031 C 79.746094 89.226562 78.832031 88.824219 77.933594 88.390625 L 77.75 88.304688 L 77.792969 88.101562 L 78.308594 85.675781 L 78.832031 83.257812 L 79.886719 78.421875 L 80.425781 76.003906 L 80.558594 75.398438 L 80.625 75.097656 L 80.660156 74.945312 L 80.707031 74.773438 C 80.777344 74.550781 80.871094 74.332031 81 74.132812 C 81.125 73.933594 81.285156 73.753906 81.457031 73.59375 C 81.628906 73.433594 81.832031 73.308594 82.039062 73.199219 C 82.25 73.09375 82.476562 73.019531 82.707031 72.972656 C 82.941406 72.933594 83.179688 72.910156 83.414062 72.9375 C 83.53125 72.941406 83.644531 72.972656 83.761719 72.988281 L 84.066406 73.054688 L 86.480469 73.59375 L 100.976562 76.828125 L 102.1875 77.097656 L 102.339844 77.132812 L 102.507812 77.179688 C 102.621094 77.210938 102.730469 77.257812 102.839844 77.304688 C 103.054688 77.402344 103.253906 77.53125 103.4375 77.683594 C 103.792969 77.988281 104.074219 78.390625 104.21875 78.839844 C 104.378906 79.285156 104.390625 79.773438 104.296875 80.234375 Z M 104.296875 80.234375 " fill-opacity="1" fill-rule="nonzero"/><path fill="#2b2b2b" d="M 76.511719 101.382812 C 74.015625 94.070312 68.464844 93.203125 68.230469 93.171875 L 68.371094 92.148438 C 68.632812 92.183594 74.777344 93.109375 77.488281 101.046875 Z M 76.511719 101.382812 " fill-opacity="1" fill-rule="nonzero"/><path fill="#2b2b2b" d="M 95.148438 103.722656 L 94.414062 102.996094 C 94.597656 102.808594 99.027344 98.449219 107.003906 101.042969 L 106.683594 102.027344 C 99.339844 99.636719 95.316406 103.554688 95.148438 103.722656 Z M 95.148438 103.722656 " fill-opacity="1" fill-rule="nonzero"/><path fill="#ff89a9" d="M 70.597656 108.148438 C 68.792969 110.105469 65.90625 109.089844 62.996094 106.402344 C 62.621094 106.058594 62.265625 105.703125 61.933594 105.339844 C 60.417969 103.691406 59.382812 101.90625 59.339844 100.398438 C 59.316406 99.652344 59.535156 98.976562 60.054688 98.414062 C 61.042969 97.34375 62.636719 97.035156 64.351562 97.417969 C 65.773438 97.730469 67.277344 98.519531 68.597656 99.738281 C 68.984375 100.09375 69.332031 100.46875 69.648438 100.859375 C 71.699219 103.394531 72.164062 106.453125 70.597656 108.148438 Z M 70.597656 108.148438 " fill-opacity="1" fill-rule="nonzero"/><path fill="#f6f4f1" d="M 64.351562 97.417969 C 64.15625 97.460938 60.46875 98.324219 59.339844 100.398438 C 59.316406 99.652344 59.535156 98.976562 60.054688 98.414062 C 61.042969 97.34375 62.636719 97.035156 64.351562 97.417969 Z M 64.351562 97.417969 " fill-opacity="1" fill-rule="nonzero"/><path fill="#ff89a9" d="M 70.597656 108.148438 C 68.792969 110.105469 65.90625 109.089844 62.996094 106.402344 C 62.621094 106.058594 62.265625 105.703125 61.933594 105.339844 C 63.472656 106.226562 65.191406 106.402344 66.183594 106.699219 C 69.140625 107.582031 69.648438 100.859375 69.648438 100.859375 C 71.699219 103.394531 72.164062 106.453125 70.597656 108.148438 Z M 70.597656 108.148438 " fill-opacity="1" fill-rule="nonzero"/><path fill="#2b2b2b" d="M 70.226562 107.804688 C 70.679688 107.332031 70.960938 106.699219 71.042969 106.007812 C 71.132812 105.320312 71.042969 104.59375 70.847656 103.894531 C 70.445312 102.492188 69.613281 101.191406 68.554688 100.136719 C 67.496094 99.074219 66.199219 98.222656 64.761719 97.796875 C 64.050781 97.585938 63.300781 97.480469 62.570312 97.542969 C 61.84375 97.605469 61.132812 97.847656 60.585938 98.300781 C 60.3125 98.527344 60.078125 98.796875 59.917969 99.097656 C 59.753906 99.398438 59.675781 99.742188 59.652344 100.085938 C 59.617188 100.785156 59.835938 101.5 60.148438 102.164062 C 60.464844 102.832031 60.882812 103.457031 61.347656 104.042969 C 61.820312 104.628906 62.335938 105.179688 62.886719 105.695312 C 63.4375 106.214844 64.015625 106.699219 64.621094 107.136719 C 65.226562 107.570312 65.863281 107.957031 66.527344 108.234375 C 67.1875 108.507812 67.878906 108.664062 68.527344 108.621094 C 69.171875 108.570312 69.757812 108.289062 70.226562 107.804688 Z M 70.96875 108.492188 L 70.734375 108.722656 C 70.652344 108.800781 70.578125 108.882812 70.484375 108.945312 C 70.300781 109.078125 70.121094 109.214844 69.914062 109.308594 C 69.8125 109.359375 69.714844 109.421875 69.605469 109.457031 L 69.28125 109.566406 C 69.171875 109.605469 69.0625 109.617188 68.949219 109.636719 C 68.839844 109.65625 68.726562 109.683594 68.613281 109.6875 C 67.714844 109.75 66.867188 109.507812 66.121094 109.171875 C 65.367188 108.832031 64.6875 108.386719 64.054688 107.902344 C 63.421875 107.414062 62.828125 106.886719 62.277344 106.320312 C 61.175781 105.191406 60.175781 103.929688 59.519531 102.449219 C 59.203125 101.710938 58.972656 100.894531 59.042969 100.042969 C 59.082031 99.621094 59.199219 99.199219 59.410156 98.824219 C 59.621094 98.445312 59.910156 98.128906 60.238281 97.867188 C 60.898438 97.351562 61.71875 97.078125 62.527344 97.019531 C 63.339844 96.957031 64.144531 97.074219 64.910156 97.292969 C 66.445312 97.746094 67.828125 98.601562 68.992188 99.679688 C 69.578125 100.21875 70.097656 100.828125 70.554688 101.492188 C 71.007812 102.152344 71.382812 102.875 71.640625 103.652344 C 71.902344 104.421875 72.039062 105.257812 71.964844 106.109375 C 71.898438 106.953125 71.566406 107.824219 70.96875 108.492188 Z M 70.96875 108.492188 " fill-opacity="1" fill-rule="nonzero"/><path fill="#ff89a9" d="M 110.890625 112.46875 C 110.050781 113.886719 107.996094 114.859375 105.296875 115.355469 C 101.398438 116.070312 97.625 115.53125 97.140625 112.914062 C 96.804688 111.097656 98.035156 109.238281 100.121094 108.03125 C 100.125 108.03125 100.125 108.03125 100.125 108.03125 C 101.046875 107.5 102.132812 107.09375 103.328125 106.875 C 107.222656 106.15625 110.773438 107.699219 111.253906 110.320312 C 111.402344 111.121094 111.265625 111.839844 110.890625 112.46875 Z M 110.890625 112.46875 " fill-opacity="1" fill-rule="nonzero"/><path fill="#ff89a9" d="M 110.890625 112.46875 C 110.050781 113.886719 107.996094 114.859375 105.296875 115.355469 C 101.398438 116.070312 97.625 115.53125 97.140625 112.914062 C 96.804688 111.097656 98.035156 109.238281 100.121094 108.03125 C 100.085938 108.140625 98.546875 112.664062 103.835938 113.324219 C 106.945312 113.714844 109.386719 113.074219 110.890625 112.46875 Z M 110.890625 112.46875 " fill-opacity="1" fill-rule="nonzero"/><g clip-path="url(#7d34632ba2)"><path fill="#2b2b2b" d="M 110.914062 110.382812 C 110.800781 109.699219 110.441406 109.0625 109.917969 108.566406 C 109.398438 108.0625 108.746094 107.6875 108.050781 107.433594 C 106.648438 106.914062 105.085938 106.851562 103.609375 107.109375 C 102.132812 107.367188 100.6875 107.925781 99.515625 108.835938 C 98.933594 109.289062 98.421875 109.828125 98.050781 110.441406 C 97.679688 111.050781 97.472656 111.738281 97.507812 112.414062 C 97.527344 112.753906 97.601562 113.082031 97.742188 113.371094 C 97.875 113.660156 98.085938 113.910156 98.335938 114.125 C 98.839844 114.550781 99.519531 114.804688 100.222656 114.953125 C 100.933594 115.101562 101.675781 115.15625 102.417969 115.144531 C 103.160156 115.132812 103.910156 115.066406 104.652344 114.953125 C 106.136719 114.722656 107.625 114.382812 108.917969 113.695312 C 109.554688 113.351562 110.132812 112.90625 110.515625 112.339844 C 110.894531 111.769531 111.023438 111.074219 110.914062 110.382812 Z M 111.59375 110.257812 L 111.636719 110.574219 C 111.648438 110.679688 111.667969 110.78125 111.660156 110.890625 C 111.660156 111.105469 111.664062 111.324219 111.617188 111.535156 C 111.558594 111.96875 111.378906 112.375 111.167969 112.75 C 110.703125 113.480469 110.042969 114.027344 109.34375 114.445312 C 108.640625 114.867188 107.886719 115.164062 107.125 115.402344 C 106.363281 115.640625 105.589844 115.820312 104.804688 115.941406 C 103.242188 116.179688 101.625 116.253906 100.015625 115.898438 C 99.613281 115.804688 99.214844 115.679688 98.828125 115.507812 C 98.445312 115.332031 98.066406 115.113281 97.734375 114.816406 C 97.40625 114.519531 97.121094 114.152344 96.941406 113.734375 C 96.761719 113.320312 96.679688 112.875 96.667969 112.445312 C 96.65625 111.570312 96.953125 110.726562 97.40625 110.035156 C 97.863281 109.339844 98.457031 108.765625 99.109375 108.292969 C 100.425781 107.355469 101.957031 106.792969 103.519531 106.558594 C 105.085938 106.328125 106.710938 106.410156 108.230469 106.921875 C 108.988281 107.1875 109.71875 107.566406 110.332031 108.117188 C 110.949219 108.660156 111.425781 109.417969 111.59375 110.257812 Z M 111.59375 110.257812 " fill-opacity="1" fill-rule="nonzero"/></g><path fill="#2b2b2b" d="M 116.652344 72.332031 C 112.09375 69.738281 113.859375 63.816406 113.878906 63.757812 L 114.535156 63.957031 C 114.46875 64.179688 112.917969 69.414062 116.992188 71.734375 Z M 116.652344 72.332031 " fill-opacity="1" fill-rule="nonzero"/><path fill="#2b2b2b" d="M 74.035156 62.292969 L 73.949219 61.609375 C 77.925781 61.117188 79.84375 55.851562 79.859375 55.796875 L 80.507812 56.027344 C 80.425781 56.261719 78.4375 61.746094 74.035156 62.292969 Z M 74.035156 62.292969 " fill-opacity="1" fill-rule="nonzero"/><path fill="#ff89a9" d="M 87.34375 78.738281 C 87.34375 80.125 86.222656 81.25 84.835938 81.25 C 84.585938 81.25 84.34375 81.210938 84.113281 81.144531 C 83.078125 80.832031 82.328125 79.875 82.328125 78.738281 C 82.328125 77.476562 83.257812 76.4375 84.46875 76.257812 C 84.585938 76.238281 84.710938 76.230469 84.835938 76.230469 C 86.222656 76.230469 87.34375 77.355469 87.34375 78.738281 Z M 87.34375 78.738281 " fill-opacity="1" fill-rule="nonzero"/><path fill="#ff89a9" d="M 87.34375 78.738281 C 87.34375 80.125 86.222656 81.25 84.835938 81.25 C 84.585938 81.25 84.34375 81.210938 84.113281 81.144531 C 86.003906 79.382812 85 77.152344 84.46875 76.257812 C 84.585938 76.238281 84.710938 76.230469 84.835938 76.230469 C 86.222656 76.230469 87.34375 77.355469 87.34375 78.738281 Z M 87.34375 78.738281 " fill-opacity="1" fill-rule="nonzero"/><path fill="#2b2b2b" d="M 84.835938 76.492188 C 83.597656 76.492188 82.585938 77.5 82.585938 78.738281 C 82.585938 79.980469 83.597656 80.988281 84.835938 80.988281 C 86.078125 80.988281 87.085938 79.980469 87.085938 78.738281 C 87.085938 77.5 86.074219 76.492188 84.835938 76.492188 Z M 84.835938 81.507812 C 83.308594 81.507812 82.066406 80.265625 82.066406 78.738281 C 82.066406 77.210938 83.308594 75.96875 84.835938 75.96875 C 86.363281 75.96875 87.605469 77.210938 87.605469 78.738281 C 87.605469 80.265625 86.363281 81.507812 84.835938 81.507812 Z M 84.835938 81.507812 " fill-opacity="1" fill-rule="nonzero"/><path fill="#ff89a9" d="M 77.082031 37.769531 L 79.246094 27.546875 L 80.4375 27.734375 L 79.078125 36.871094 Z M 77.082031 37.769531 " fill-opacity="1" fill-rule="nonzero"/><path fill="#2b2b2b" d="M 79.453125 27.84375 L 77.445312 37.324219 L 78.84375 36.691406 L 80.140625 27.953125 Z M 76.722656 38.21875 L 79.042969 27.253906 L 80.730469 27.519531 L 79.316406 37.050781 Z M 76.722656 38.21875 " fill-opacity="1" fill-rule="nonzero"/><path fill="#ff89a9" d="M 79.015625 53.582031 C 79.015625 53.582031 78.734375 53.472656 78.3125 53.292969 C 77.453125 52.917969 76.023438 52.222656 75.289062 51.453125 C 74.191406 50.308594 74.765625 41.148438 75.257812 39.542969 C 75.542969 38.609375 77.289062 37.578125 78.6875 36.882812 C 79.6875 36.386719 80.515625 36.058594 80.515625 36.058594 Z M 79.015625 53.582031 " fill-opacity="1" fill-rule="nonzero"/><path fill="#ff89a9" d="M 79.015625 53.582031 C 79.015625 53.582031 78.734375 53.472656 78.3125 53.292969 C 74.417969 48.703125 78.09375 37.554688 78.09375 37.554688 L 78.6875 36.882812 C 79.6875 36.382812 80.515625 36.058594 80.515625 36.058594 Z M 79.015625 53.582031 " fill-opacity="1" fill-rule="nonzero"/><path fill="#2b2b2b" d="M 80.609375 36.296875 C 79.757812 36.675781 78.90625 37.089844 78.09375 37.554688 C 77.6875 37.785156 77.296875 38.035156 76.917969 38.292969 C 76.546875 38.558594 76.1875 38.84375 75.910156 39.164062 C 75.777344 39.320312 75.667969 39.492188 75.621094 39.640625 C 75.566406 39.824219 75.527344 40.058594 75.488281 40.28125 C 75.421875 40.738281 75.371094 41.207031 75.328125 41.671875 C 75.238281 42.609375 75.175781 43.550781 75.136719 44.492188 C 75.097656 45.433594 75.074219 46.375 75.085938 47.316406 C 75.101562 48.253906 75.132812 49.195312 75.261719 50.09375 C 75.277344 50.207031 75.292969 50.320312 75.316406 50.425781 L 75.351562 50.585938 L 75.390625 50.742188 C 75.402344 50.792969 75.417969 50.839844 75.4375 50.886719 C 75.453125 50.929688 75.464844 50.988281 75.488281 51.019531 C 75.503906 51.054688 75.523438 51.105469 75.539062 51.125 C 75.550781 51.136719 75.558594 51.148438 75.566406 51.160156 L 75.574219 51.179688 L 75.601562 51.207031 C 75.890625 51.511719 76.261719 51.78125 76.644531 52.03125 C 77.414062 52.523438 78.257812 52.953125 79.105469 53.335938 L 78.921875 53.824219 C 78.457031 53.671875 78.015625 53.496094 77.570312 53.304688 C 77.125 53.113281 76.6875 52.898438 76.261719 52.652344 C 75.835938 52.40625 75.421875 52.128906 75.039062 51.757812 L 75.003906 51.726562 L 74.960938 51.671875 L 74.875 51.566406 C 74.824219 51.492188 74.800781 51.429688 74.761719 51.359375 C 74.722656 51.289062 74.707031 51.226562 74.679688 51.160156 C 74.652344 51.097656 74.628906 51.03125 74.613281 50.96875 L 74.558594 50.78125 L 74.519531 50.59375 C 74.488281 50.46875 74.46875 50.347656 74.445312 50.222656 C 74.363281 49.734375 74.324219 49.25 74.292969 48.765625 C 74.261719 48.285156 74.246094 47.804688 74.242188 47.324219 C 74.234375 46.363281 74.261719 45.40625 74.308594 44.453125 C 74.359375 43.496094 74.429688 42.542969 74.535156 41.589844 C 74.589844 41.113281 74.652344 40.636719 74.738281 40.15625 C 74.785156 39.910156 74.824219 39.679688 74.914062 39.410156 C 75.015625 39.105469 75.1875 38.882812 75.363281 38.679688 C 75.71875 38.289062 76.121094 37.992188 76.527344 37.71875 C 76.933594 37.445312 77.359375 37.207031 77.785156 36.984375 C 78.644531 36.539062 79.515625 36.152344 80.421875 35.8125 Z M 80.609375 36.296875 " fill-opacity="1" fill-rule="nonzero"/><path fill="#ff89a9" d="M 125.304688 46.554688 L 126.882812 36.222656 L 125.703125 35.980469 L 123.753906 45.007812 Z M 125.304688 46.554688 " fill-opacity="1" fill-rule="nonzero"/><path fill="#2b2b2b" d="M 124.039062 44.925781 L 125.125 46.007812 L 126.589844 36.429688 L 125.90625 36.285156 Z M 125.484375 47.097656 L 123.46875 45.09375 L 125.503906 35.671875 L 127.179688 36.019531 Z M 125.484375 47.097656 " fill-opacity="1" fill-rule="nonzero"/><path fill="#ff89a9" d="M 122.160156 59.992188 C 121.5625 60.277344 120.726562 60.441406 119.953125 60.539062 C 118.875 60.667969 117.921875 60.667969 117.921875 60.667969 L 122.699219 43.738281 C 122.699219 43.738281 123.515625 44.484375 124.382812 45.449219 C 125.382812 46.558594 126.441406 47.960938 126.386719 48.855469 C 126.28125 50.53125 123.589844 59.304688 122.160156 59.992188 Z M 122.160156 59.992188 " fill-opacity="1" fill-rule="nonzero"/><path fill="#ff89a9" d="M 119.953125 60.539062 C 118.875 60.667969 117.921875 60.667969 117.921875 60.667969 L 122.699219 43.738281 C 122.699219 43.738281 123.515625 44.484375 124.382812 45.449219 C 124.3125 47.300781 123.785156 55.367188 119.953125 60.539062 Z M 119.953125 60.539062 " fill-opacity="1" fill-rule="nonzero"/><path fill="#2b2b2b" d="M 117.921875 60.925781 L 117.925781 60.40625 C 117.953125 60.40625 120.6875 60.40625 122.046875 59.757812 C 123.265625 59.171875 126.007812 50.710938 126.128906 48.839844 C 126.207031 47.570312 123.550781 44.867188 122.523438 43.933594 L 122.871094 43.546875 C 123.269531 43.90625 126.757812 47.125 126.648438 48.875 C 126.542969 50.492188 123.863281 59.460938 122.273438 60.226562 C 120.808594 60.929688 118.039062 60.929688 117.921875 60.925781 Z M 117.921875 60.925781 " fill-opacity="1" fill-rule="nonzero"/><g clip-path="url(#48a12876b7)"><path fill="#ff89a9" d="M 117.929688 60.648438 C 117.734375 60.875 117.535156 61.09375 117.324219 61.308594 C 116.863281 61.785156 116.371094 62.234375 115.847656 62.660156 C 114.738281 63.558594 113.503906 64.328125 112.144531 64.964844 C 108.078125 66.859375 102.90625 67.523438 96.734375 66.644531 C 90.648438 65.289062 86.042969 62.84375 82.90625 59.636719 C 81.859375 58.5625 80.972656 57.40625 80.25 56.175781 C 80.203125 56.09375 80.15625 56.011719 80.113281 55.929688 C 76.472656 49.46875 77.460938 41.046875 82.132812 32.136719 C 83.507812 29.519531 85.386719 27.53125 87.589844 26.082031 C 92.386719 22.933594 98.707031 22.351562 104.609375 23.398438 C 109.488281 24.3125 114.242188 26.367188 117.652344 29.683594 C 120.25 32.207031 122.070312 35.464844 122.566406 39.503906 C 122.753906 41.019531 122.863281 42.496094 122.894531 43.925781 C 123.0625 50.796875 121.453125 56.59375 117.929688 60.648438 Z M 117.929688 60.648438 " fill-opacity="1" fill-rule="nonzero"/></g><g clip-path="url(#0b5470ac0a)"><path fill="#f6f4f1" d="M 117.652344 29.683594 C 115.039062 28.058594 110.734375 26.054688 103.882812 24.847656 C 97.339844 23.699219 91.535156 24.816406 87.589844 26.082031 C 92.386719 22.933594 98.707031 22.351562 104.609375 23.398438 C 109.488281 24.3125 114.242188 26.367188 117.652344 29.683594 Z M 117.652344 29.683594 " fill-opacity="1" fill-rule="nonzero"/></g><path fill="#ff89a9" d="M 117.324219 61.308594 C 116.863281 61.785156 116.371094 62.234375 115.847656 62.660156 C 114.738281 63.558594 113.503906 64.328125 112.144531 64.964844 C 108.078125 66.859375 102.90625 67.523438 96.734375 66.644531 C 90.648438 65.289062 86.042969 62.84375 82.90625 59.636719 C 81.859375 58.5625 80.972656 57.40625 80.25 56.175781 C 80.203125 56.09375 80.15625 56.011719 80.113281 55.929688 C 79.296875 52.503906 78.898438 46.085938 82.253906 39.648438 C 87.828125 28.953125 93.335938 27.160156 103.601562 29.03125 C 112.9375 30.730469 121.199219 37.359375 119.492188 52.054688 C 119.070312 55.699219 118.28125 58.761719 117.324219 61.308594 Z M 117.324219 61.308594 " fill-opacity="1" fill-rule="nonzero"/><g clip-path="url(#9574c8636b)"><path fill="#2b2b2b" d="M 117.640625 60.398438 C 119.230469 58.554688 120.382812 56.363281 121.152344 54.046875 C 121.542969 52.890625 121.820312 51.695312 122.027344 50.488281 C 122.234375 49.285156 122.375 48.0625 122.429688 46.835938 C 122.558594 44.382812 122.429688 41.914062 122.117188 39.472656 C 121.808594 37.070312 120.964844 34.742188 119.621094 32.730469 C 118.949219 31.726562 118.164062 30.792969 117.292969 29.949219 C 116.421875 29.105469 115.460938 28.355469 114.445312 27.683594 C 112.410156 26.335938 110.148438 25.34375 107.808594 24.625 C 106.636719 24.265625 105.441406 23.980469 104.234375 23.773438 C 103.03125 23.570312 101.808594 23.4375 100.585938 23.378906 C 98.140625 23.273438 95.675781 23.464844 93.3125 24.066406 C 92.132812 24.367188 90.976562 24.769531 89.878906 25.285156 C 88.777344 25.796875 87.738281 26.433594 86.78125 27.175781 C 85.820312 27.914062 84.949219 28.765625 84.195312 29.714844 C 83.4375 30.664062 82.796875 31.691406 82.253906 32.792969 C 81.128906 34.984375 80.167969 37.265625 79.46875 39.621094 L 79.207031 40.503906 L 78.992188 41.398438 L 78.886719 41.847656 L 78.832031 42.070312 L 78.792969 42.296875 L 78.628906 43.203125 C 78.601562 43.351562 78.570312 43.503906 78.546875 43.65625 L 78.492188 44.109375 L 78.382812 45.023438 C 78.351562 45.324219 78.347656 45.632812 78.324219 45.9375 L 78.300781 46.394531 L 78.285156 46.625 L 78.289062 46.851562 C 78.300781 47.460938 78.28125 48.074219 78.351562 48.679688 C 78.378906 48.984375 78.394531 49.289062 78.429688 49.59375 C 78.476562 49.894531 78.523438 50.195312 78.566406 50.496094 C 78.589844 50.648438 78.605469 50.800781 78.636719 50.949219 L 78.730469 51.394531 C 78.796875 51.691406 78.855469 51.992188 78.929688 52.289062 L 79.195312 53.164062 C 79.242188 53.308594 79.28125 53.457031 79.332031 53.601562 L 79.503906 54.027344 C 79.621094 54.308594 79.730469 54.59375 79.859375 54.871094 L 80.285156 55.683594 C 80.359375 55.820312 80.429688 55.957031 80.503906 56.089844 C 80.582031 56.21875 80.664062 56.351562 80.742188 56.480469 C 80.90625 56.738281 81.078125 56.992188 81.253906 57.242188 C 81.960938 58.242188 82.773438 59.167969 83.667969 60.003906 C 85.457031 61.683594 87.5625 63.011719 89.792969 64.042969 C 92.027344 65.078125 94.394531 65.8125 96.800781 66.351562 L 96.777344 66.347656 C 98.664062 66.605469 100.5625 66.742188 102.457031 66.703125 C 103.40625 66.6875 104.351562 66.609375 105.292969 66.503906 C 106.230469 66.390625 107.160156 66.222656 108.078125 66.003906 C 108.996094 65.789062 109.898438 65.5 110.777344 65.160156 C 111.652344 64.820312 112.507812 64.421875 113.320312 63.953125 C 114.945312 63.015625 116.421875 61.816406 117.640625 60.398438 Z M 118.21875 60.898438 C 116.929688 62.378906 115.378906 63.617188 113.675781 64.578125 C 112.828125 65.0625 111.9375 65.46875 111.027344 65.816406 C 110.117188 66.160156 109.183594 66.449219 108.238281 66.667969 C 107.289062 66.882812 106.332031 67.050781 105.367188 67.160156 C 104.402344 67.261719 103.4375 67.335938 102.46875 67.339844 C 100.53125 67.371094 98.601562 67.210938 96.691406 66.945312 L 96.679688 66.945312 L 96.667969 66.941406 C 94.230469 66.382812 91.824219 65.628906 89.550781 64.5625 C 87.277344 63.5 85.128906 62.132812 83.292969 60.398438 C 82.378906 59.535156 81.542969 58.578125 80.820312 57.546875 C 80.640625 57.285156 80.464844 57.023438 80.296875 56.757812 C 80.214844 56.621094 80.132812 56.488281 80.054688 56.351562 C 79.976562 56.214844 79.90625 56.074219 79.832031 55.933594 L 79.386719 55.097656 C 79.253906 54.8125 79.128906 54.523438 79 54.234375 L 78.804688 53.800781 C 78.746094 53.65625 78.699219 53.503906 78.644531 53.355469 L 78.324219 52.460938 C 78.234375 52.160156 78.15625 51.851562 78.074219 51.546875 L 77.949219 51.085938 C 77.910156 50.933594 77.890625 50.777344 77.863281 50.621094 C 77.804688 50.308594 77.753906 49.996094 77.699219 49.683594 C 77.65625 49.371094 77.640625 49.054688 77.609375 48.738281 C 77.535156 48.109375 77.550781 47.476562 77.539062 46.84375 L 77.535156 46.605469 L 77.546875 46.371094 L 77.574219 45.898438 C 77.59375 45.582031 77.597656 45.265625 77.628906 44.953125 L 77.742188 44.011719 L 77.796875 43.542969 C 77.820312 43.386719 77.847656 43.234375 77.875 43.078125 L 78.042969 42.144531 L 78.082031 41.914062 L 78.136719 41.683594 L 78.246094 41.226562 L 78.464844 40.304688 L 78.726562 39.402344 C 79.4375 36.988281 80.40625 34.664062 81.542969 32.429688 C 82.644531 30.160156 84.253906 28.082031 86.277344 26.527344 C 87.28125 25.746094 88.371094 25.070312 89.523438 24.53125 C 90.671875 23.988281 91.875 23.566406 93.101562 23.246094 C 95.5625 22.621094 98.105469 22.417969 100.625 22.527344 C 101.882812 22.582031 103.136719 22.71875 104.382812 22.925781 C 105.628906 23.140625 106.855469 23.429688 108.058594 23.796875 C 110.46875 24.535156 112.808594 25.554688 114.925781 26.953125 C 115.984375 27.648438 116.988281 28.433594 117.90625 29.316406 C 118.820312 30.203125 119.648438 31.179688 120.355469 32.242188 C 121.78125 34.363281 122.667969 36.835938 122.988281 39.363281 C 123.304688 41.851562 123.414062 44.371094 123.273438 46.882812 C 123.210938 48.136719 123.0625 49.390625 122.839844 50.632812 C 122.621094 51.875 122.324219 53.105469 121.914062 54.304688 C 121.105469 56.695312 119.890625 58.980469 118.21875 60.898438 Z M 118.21875 60.898438 " fill-opacity="1" fill-rule="nonzero"/></g><path fill="#2b2b2b" d="M 118.785156 53.863281 C 117.957031 58.402344 115.523438 62.25 112.144531 64.964844 C 108.082031 66.859375 102.90625 67.523438 96.734375 66.644531 C 90.648438 65.289062 86.042969 62.847656 82.90625 59.640625 C 80.703125 55.910156 79.78125 51.449219 80.609375 46.910156 C 82.472656 36.675781 92.527344 29.9375 103.070312 31.859375 C 113.613281 33.777344 120.648438 43.628906 118.785156 53.863281 Z M 118.785156 53.863281 " fill-opacity="1" fill-rule="nonzero"/><path fill="#f6f4f1" d="M 83.261719 50.386719 C 82.652344 50.429688 83.28125 55.222656 86.195312 58.933594 C 89.484375 63.121094 95.265625 64.289062 95.476562 63.527344 C 95.78125 62.425781 91.582031 62.273438 87.800781 58.589844 C 84.585938 55.457031 83.933594 50.335938 83.261719 50.386719 Z M 83.261719 50.386719 " fill-opacity="1" fill-rule="nonzero"/><path fill="#f6f4f1" d="M 116.347656 47.40625 C 116.78125 47.324219 116.765625 45.535156 116.046875 43.691406 C 115.289062 41.738281 113.558594 40.34375 113.203125 40.566406 C 112.949219 40.726562 113.34375 41.273438 114.316406 43.238281 C 115.683594 45.996094 115.949219 47.484375 116.347656 47.40625 Z M 116.347656 47.40625 " fill-opacity="1" fill-rule="nonzero"/><path fill="#f6f4f1" d="M 112.410156 39.160156 C 112.117188 38.582031 111.105469 38.492188 110.933594 38.757812 C 110.839844 38.902344 110.992188 39.144531 111.054688 39.25 C 111.378906 39.777344 112.15625 40.046875 112.40625 39.8125 C 112.558594 39.667969 112.503906 39.351562 112.410156 39.160156 Z M 112.410156 39.160156 " fill-opacity="1" fill-rule="nonzero"/></svg>